<svg xmlns="http://www.w3.org/2000/svg" xmlns:xlink="http://www.w3.org/1999/xlink" width="1500" zoomAndPan="magnify" viewBox="0 0 1125 374.999991" height="500" preserveAspectRatio="xMidYMid meet" version="1.0"><defs><g/><clipPath id="4503f5e38e"><path d="M 131.722656 131.121094 L 240.472656 131.121094 L 240.472656 236.871094 L 131.722656 236.871094 Z M 131.722656 131.121094 " clip-rule="nonzero"/></clipPath></defs><g fill="#f3f3f3" fill-opacity="1"><g transform="translate(29.236517, 232.874985)"><g><path d="M 56.039062 1.960938 C 70.734375 1.960938 80.925781 -3.136719 87.785156 -11.363281 C 89.9375 -14.304688 89.15625 -19.007812 86.410156 -21.160156 L 80.335938 -25.667969 C 75.636719 -29 73.871094 -28.019531 68.386719 -25.082031 C 64.074219 -21.945312 59.960938 -21.160156 56.039062 -21.160156 C 46.636719 -21.160156 41.148438 -26.453125 41.148438 -38.796875 L 41.148438 -65.835938 C 41.148438 -78.183594 46.636719 -83.472656 56.039062 -83.472656 C 59.960938 -83.472656 64.074219 -82.6875 68.386719 -79.554688 C 73.871094 -76.613281 75.636719 -75.636719 80.335938 -78.964844 L 86.410156 -83.472656 C 89.15625 -85.628906 89.9375 -90.332031 87.785156 -93.269531 C 80.925781 -101.5 70.734375 -106.59375 56.039062 -106.59375 C 29.195312 -106.59375 15.675781 -90.527344 15.675781 -62.703125 L 15.675781 -41.933594 C 15.675781 -14.109375 29.195312 1.960938 56.039062 1.960938 Z M 56.039062 1.960938 "/></g></g></g><g fill="#f3f3f3" fill-opacity="1"><g transform="translate(131.904479, 232.874985)"><g/></g></g><g fill="#f3f3f3" fill-opacity="1"><g transform="translate(186.768973, 232.874985)"><g/></g></g><g fill="#f3f3f3" fill-opacity="1"><g transform="translate(241.627128, 232.874985)"><g><path d="M 58.585938 -106.59375 C 49.964844 -106.59375 42.910156 -104.046875 37.816406 -99.148438 C 36.640625 -101.695312 34.09375 -103.65625 30.960938 -103.65625 L 19.789062 -103.65625 C 15.871094 -103.65625 12.539062 -100.519531 12.539062 -96.601562 L 12.539062 31.9375 C 12.539062 35.859375 15.871094 39.1875 19.789062 39.1875 L 30.960938 39.1875 C 34.878906 39.1875 38.210938 35.859375 38.210938 31.9375 L 38.210938 -5.09375 C 43.304688 -0.390625 50.160156 1.960938 58.585938 1.960938 C 79.945312 1.960938 91.507812 -12.933594 91.507812 -41.148438 L 91.507812 -63.683594 C 91.507812 -91.703125 79.945312 -106.59375 58.585938 -106.59375 Z M 65.835938 -38.011719 C 65.835938 -27.433594 61.332031 -22.335938 51.925781 -22.335938 C 42.714844 -22.335938 38.210938 -27.433594 38.210938 -33.507812 L 38.210938 -71.128906 C 38.210938 -77.203125 42.714844 -82.296875 51.925781 -82.296875 C 61.332031 -82.296875 65.835938 -77.203125 65.835938 -66.621094 Z M 65.835938 -38.011719 "/></g></g></g><g fill="#f3f3f3" fill-opacity="1"><g transform="translate(344.302151, 232.874985)"><g><path d="M 78.183594 -103.65625 C 72.304688 -103.65625 70.34375 -100.910156 69.167969 -96.601562 L 51.335938 -34.289062 L 33.507812 -96.601562 C 32.332031 -100.910156 30.371094 -103.65625 24.492188 -103.65625 L 13.324219 -103.65625 C 9.011719 -103.65625 5.878906 -99.734375 7.445312 -95.425781 L 38.796875 1.371094 L 37.425781 5.289062 C 34.683594 12.738281 30.371094 16.066406 22.140625 16.066406 L 18.027344 16.066406 C 13.910156 16.066406 10.777344 19.398438 10.777344 23.316406 L 10.777344 31.9375 C 10.777344 35.859375 13.910156 39.1875 18.027344 39.1875 L 29.585938 39.1875 C 51.925781 39.1875 57.804688 23.511719 63.289062 6.074219 L 95.425781 -95.425781 C 96.796875 -99.734375 93.660156 -103.65625 89.351562 -103.65625 Z M 78.183594 -103.65625 "/></g></g></g><g fill="#f3f3f3" fill-opacity="1"><g transform="translate(446.977174, 232.874985)"><g><path d="M 56.039062 1.960938 C 70.734375 1.960938 80.925781 -3.136719 87.785156 -11.363281 C 89.9375 -14.304688 89.15625 -19.007812 86.410156 -21.160156 L 80.335938 -25.667969 C 75.636719 -29 73.871094 -28.019531 68.386719 -25.082031 C 64.074219 -21.945312 59.960938 -21.160156 56.039062 -21.160156 C 46.636719 -21.160156 41.148438 -26.453125 41.148438 -38.796875 L 41.148438 -65.835938 C 41.148438 -78.183594 46.636719 -83.472656 56.039062 -83.472656 C 59.960938 -83.472656 64.074219 -82.6875 68.386719 -79.554688 C 73.871094 -76.613281 75.636719 -75.636719 80.335938 -78.964844 L 86.410156 -83.472656 C 89.15625 -85.628906 89.9375 -90.332031 87.785156 -93.269531 C 80.925781 -101.5 70.734375 -106.59375 56.039062 -106.59375 C 29.195312 -106.59375 15.675781 -90.527344 15.675781 -62.703125 L 15.675781 -41.933594 C 15.675781 -14.109375 29.195312 1.960938 56.039062 1.960938 Z M 56.039062 1.960938 "/></g></g></g><g fill="#f3f3f3" fill-opacity="1"><g transform="translate(549.652209, 232.874985)"><g><path d="M 92.09375 -21.160156 C 90.132812 -21.160156 88.960938 -22.335938 88.960938 -25.472656 L 88.960938 -96.601562 C 88.960938 -100.519531 85.628906 -103.65625 81.710938 -103.65625 L 69.167969 -103.65625 C 65.640625 -103.65625 63.289062 -101.890625 63.289062 -98.953125 C 58.195312 -104.046875 51.140625 -106.59375 42.324219 -106.59375 C 20.964844 -106.59375 9.40625 -91.703125 9.40625 -63.683594 L 9.40625 -41.148438 C 9.40625 -12.933594 20.964844 1.960938 42.324219 1.960938 C 52.90625 1.960938 61.136719 -1.761719 66.230469 -9.210938 C 68.972656 -2.15625 77.007812 0.980469 83.472656 0.980469 C 87.390625 0.980469 91.898438 0.390625 94.835938 -1.960938 C 96.210938 -3.136719 96.796875 -4.507812 96.796875 -6.464844 L 96.796875 -17.636719 C 96.796875 -19.789062 95.621094 -21.160156 93.859375 -21.160156 Z M 62.703125 -33.507812 C 62.703125 -27.433594 58.195312 -22.335938 48.984375 -22.335938 C 39.582031 -22.335938 35.074219 -27.433594 35.074219 -38.011719 L 35.074219 -66.621094 C 35.074219 -77.203125 39.582031 -82.296875 48.984375 -82.296875 C 58.195312 -82.296875 62.703125 -77.203125 62.703125 -71.128906 Z M 62.703125 -33.507812 "/></g></g></g><g fill="#f3f3f3" fill-opacity="1"><g transform="translate(652.32722, 232.874985)"><g><path d="M 88.761719 -25.667969 C 83.863281 -29.195312 82.101562 -28.019531 76.808594 -25.082031 C 72.5 -21.945312 68.1875 -21.160156 64.269531 -21.160156 C 54.863281 -21.160156 49.574219 -26.257812 49.574219 -38.601562 L 49.574219 -80.730469 L 74.65625 -80.730469 C 78.574219 -80.730469 81.90625 -83.863281 81.90625 -87.785156 L 81.90625 -96.601562 C 81.90625 -100.519531 78.574219 -103.65625 74.65625 -103.65625 L 49.574219 -103.65625 L 49.574219 -124.03125 C 49.574219 -127.953125 46.242188 -131.28125 42.324219 -131.28125 L 31.15625 -131.28125 C 27.238281 -131.28125 23.90625 -127.953125 23.90625 -124.03125 L 23.90625 -103.65625 L 14.695312 -103.65625 C 10.777344 -103.65625 7.640625 -100.519531 7.640625 -96.601562 L 7.640625 -87.785156 C 7.640625 -83.863281 10.777344 -80.730469 14.695312 -80.730469 L 23.90625 -80.730469 L 23.90625 -40.757812 C 23.90625 -13.128906 36.640625 1.960938 64.269531 1.960938 C 78.964844 1.960938 89.15625 -3.136719 96.011719 -11.363281 C 98.363281 -14.304688 97.382812 -19.203125 94.640625 -21.160156 Z M 88.761719 -25.667969 "/></g></g></g><g clip-path="url(#4503f5e38e)"><path fill="#f3f3f3" d="M 229.882812 217.253906 C 236.53125 208.28125 240.457031 197.195312 240.457031 185.195312 C 240.457031 155.332031 216.121094 131.121094 186.097656 131.121094 C 156.078125 131.121094 131.738281 155.332031 131.738281 185.195312 C 131.738281 209.507812 147.867188 230.074219 170.0625 236.882812 C 168.707031 233.652344 167.609375 230.816406 166.972656 228.871094 C 164.769531 222.15625 166.199219 213.6875 166.886719 209.621094 C 166.914062 209.441406 166.945312 209.269531 166.972656 209.105469 C 167.609375 205.28125 166.496094 200.488281 165.4375 197.121094 C 163.324219 190.382812 163.070312 184.5 164.988281 181.183594 C 162.023438 178.835938 162.074219 165.882812 162.246094 159.890625 C 165.4375 159.890625 171.3125 164.605469 174.761719 168.433594 C 174.761719 168.433594 184.230469 163.03125 193.667969 168.433594 C 199.769531 160.65625 205.671875 160.65625 205.671875 160.65625 C 205.671875 160.65625 207.726562 168.433594 204.269531 181.183594 C 206.898438 187.445312 205.839844 193.183594 205.332031 195.957031 C 205.242188 196.4375 205.167969 196.832031 205.136719 197.121094 C 204.882812 199.320312 206.695312 201.054688 208.574219 202.847656 C 209.535156 203.765625 210.515625 204.703125 211.242188 205.722656 C 211.898438 206.652344 212.398438 207.492188 212.847656 208.257812 C 214.003906 210.210938 214.859375 211.660156 217.347656 212.746094 C 220.78125 214.25 223.679688 215.195312 226.363281 216.070312 C 227.570312 216.464844 228.734375 216.84375 229.882812 217.253906 Z M 229.882812 217.253906 " fill-opacity="1" fill-rule="nonzero"/></g><g fill="#f3f3f3" fill-opacity="1"><g transform="translate(723.384915, 232.879763)"><g><path d="M 59.582031 0 C 63.503906 0 66.835938 -3.332031 66.835938 -7.25 L 66.835938 -24.695312 C 66.835938 -28.617188 63.503906 -31.949219 59.582031 -31.949219 L 43.316406 -31.949219 C 39.394531 -31.949219 36.0625 -28.617188 36.0625 -24.695312 L 36.0625 -7.25 C 36.0625 -3.332031 39.394531 0 43.316406 0 Z M 59.582031 0 "/></g></g></g><g fill="#f3f3f3" fill-opacity="1"><g transform="translate(794.265247, 232.870185)"><g><path d="M 92.117188 -21.167969 C 90.160156 -21.167969 88.984375 -22.34375 88.984375 -25.480469 L 88.984375 -96.625 C 88.984375 -100.546875 85.652344 -103.683594 81.730469 -103.683594 L 69.1875 -103.683594 C 65.660156 -103.683594 63.308594 -101.917969 63.308594 -98.980469 C 58.210938 -104.074219 51.15625 -106.621094 42.335938 -106.621094 C 20.972656 -106.621094 9.40625 -91.726562 9.40625 -63.699219 L 9.40625 -41.160156 C 9.40625 -12.9375 20.972656 1.960938 42.335938 1.960938 C 52.917969 1.960938 61.152344 -1.765625 66.246094 -9.210938 C 68.992188 -2.15625 77.027344 0.980469 83.496094 0.980469 C 87.414062 0.980469 91.921875 0.390625 94.863281 -1.960938 C 96.234375 -3.136719 96.824219 -4.507812 96.824219 -6.46875 L 96.824219 -17.640625 C 96.824219 -19.796875 95.648438 -21.167969 93.882812 -21.167969 Z M 62.71875 -33.515625 C 62.71875 -27.441406 58.210938 -22.34375 49 -22.34375 C 39.589844 -22.34375 35.082031 -27.441406 35.082031 -38.023438 L 35.082031 -66.640625 C 35.082031 -77.222656 39.589844 -82.320312 49 -82.320312 C 58.210938 -82.320312 62.71875 -77.222656 62.71875 -71.148438 Z M 62.71875 -33.515625 "/></g></g></g><g fill="#f3f3f3" fill-opacity="1"><g transform="translate(896.967771, 232.870185)"><g><path d="M 71.734375 -145.039062 C 67.816406 -145.039062 64.484375 -141.707031 64.484375 -137.785156 L 64.484375 -99.566406 C 59.386719 -104.269531 52.527344 -106.621094 44.097656 -106.621094 C 22.734375 -106.621094 11.171875 -91.726562 11.171875 -63.699219 L 11.171875 -41.160156 C 11.171875 -12.9375 22.734375 1.960938 44.097656 1.960938 C 52.722656 1.960938 59.582031 -0.390625 64.679688 -5.488281 C 65.660156 -2.351562 68.402344 0 71.734375 0 L 82.90625 0 C 86.828125 0 90.160156 -3.332031 90.160156 -7.25 L 90.160156 -137.785156 C 90.160156 -141.707031 86.828125 -145.039062 82.90625 -145.039062 Z M 50.761719 -22.34375 C 41.355469 -22.34375 36.847656 -27.441406 36.847656 -38.023438 L 36.847656 -66.640625 C 36.847656 -77.222656 41.355469 -82.320312 50.761719 -82.320312 C 59.976562 -82.320312 64.484375 -77.222656 64.484375 -71.148438 L 64.484375 -33.515625 C 64.484375 -27.441406 59.976562 -22.34375 50.761719 -22.34375 Z M 50.761719 -22.34375 "/></g></g></g><g fill="#f3f3f3" fill-opacity="1"><g transform="translate(999.670294, 232.870185)"><g><path d="M 53.507812 1.960938 C 78.203125 1.960938 91.53125 -8.035156 91.53125 -30.378906 C 91.53125 -50.960938 80.359375 -58.996094 67.421875 -62.328125 L 50.175781 -66.835938 C 44.097656 -68.402344 39.589844 -71.148438 39.589844 -76.046875 C 39.589844 -81.535156 43.511719 -83.886719 50.371094 -83.886719 C 58.015625 -83.886719 64.484375 -81.339844 67.816406 -79.96875 C 72.519531 -78.398438 75.65625 -78.59375 78.59375 -82.515625 L 84.082031 -89.765625 C 86.042969 -92.511719 85.453125 -97.214844 82.121094 -99.175781 C 74.871094 -103.878906 63.894531 -106.621094 51.546875 -106.621094 C 28.617188 -106.621094 13.914062 -97.605469 13.914062 -75.066406 C 13.914062 -55.46875 25.871094 -46.648438 38.613281 -43.121094 L 57.035156 -38.414062 C 63.109375 -36.652344 65.855469 -34.105469 65.855469 -29.398438 C 65.855469 -23.324219 61.152344 -20.777344 53.507812 -20.777344 C 45.472656 -20.777344 39.199219 -23.519531 33.515625 -27.046875 C 28.8125 -29.792969 26.066406 -30.378906 21.558594 -27.046875 L 14.308594 -21.753906 C 10.78125 -19.207031 11.171875 -14.503906 13.328125 -12.152344 C 23.324219 -2.15625 39.984375 1.960938 53.507812 1.960938 Z M 53.507812 1.960938 "/></g></g></g></svg>