<svg xmlns="http://www.w3.org/2000/svg" xmlns:xlink="http://www.w3.org/1999/xlink" width="1000" zoomAndPan="magnify" viewBox="0 0 750 374.999991" height="500" preserveAspectRatio="xMidYMid meet" version="1.0"><defs><g/><clipPath id="00046096fc"><path d="M 114.601562 131.121094 L 223.351562 131.121094 L 223.351562 236.871094 L 114.601562 236.871094 Z M 114.601562 131.121094 " clip-rule="nonzero"/></clipPath></defs><g fill="#3b4658" fill-opacity="1"><g transform="translate(12.117196, 233.624985)"><g><path d="M 56.039062 1.960938 C 70.734375 1.960938 80.925781 -3.136719 87.785156 -11.363281 C 89.9375 -14.304688 89.15625 -19.007812 86.410156 -21.160156 L 80.335938 -25.667969 C 75.636719 -29 73.871094 -28.019531 68.386719 -25.082031 C 64.074219 -21.945312 59.960938 -21.160156 56.039062 -21.160156 C 46.636719 -21.160156 41.148438 -26.453125 41.148438 -38.796875 L 41.148438 -65.835938 C 41.148438 -78.183594 46.636719 -83.472656 56.039062 -83.472656 C 59.960938 -83.472656 64.074219 -82.6875 68.386719 -79.554688 C 73.871094 -76.613281 75.636719 -75.636719 80.335938 -78.964844 L 86.410156 -83.472656 C 89.15625 -85.628906 89.9375 -90.332031 87.785156 -93.269531 C 80.925781 -101.5 70.734375 -106.59375 56.039062 -106.59375 C 29.195312 -106.59375 15.675781 -90.527344 15.675781 -62.703125 L 15.675781 -41.933594 C 15.675781 -14.109375 29.195312 1.960938 56.039062 1.960938 Z M 56.039062 1.960938 "/></g></g></g><g fill="#3b4658" fill-opacity="1"><g transform="translate(114.785158, 233.624985)"><g/></g></g><g fill="#3b4658" fill-opacity="1"><g transform="translate(169.649652, 233.624985)"><g/></g></g><g fill="#3b4658" fill-opacity="1"><g transform="translate(224.507807, 233.624985)"><g><path d="M 58.585938 -106.59375 C 49.964844 -106.59375 42.910156 -104.046875 37.816406 -99.148438 C 36.640625 -101.695312 34.09375 -103.65625 30.960938 -103.65625 L 19.789062 -103.65625 C 15.871094 -103.65625 12.539062 -100.519531 12.539062 -96.601562 L 12.539062 31.9375 C 12.539062 35.859375 15.871094 39.1875 19.789062 39.1875 L 30.960938 39.1875 C 34.878906 39.1875 38.210938 35.859375 38.210938 31.9375 L 38.210938 -5.09375 C 43.304688 -0.390625 50.160156 1.960938 58.585938 1.960938 C 79.945312 1.960938 91.507812 -12.933594 91.507812 -41.148438 L 91.507812 -63.683594 C 91.507812 -91.703125 79.945312 -106.59375 58.585938 -106.59375 Z M 65.835938 -38.011719 C 65.835938 -27.433594 61.332031 -22.335938 51.925781 -22.335938 C 42.714844 -22.335938 38.210938 -27.433594 38.210938 -33.507812 L 38.210938 -71.128906 C 38.210938 -77.203125 42.714844 -82.296875 51.925781 -82.296875 C 61.332031 -82.296875 65.835938 -77.203125 65.835938 -66.621094 Z M 65.835938 -38.011719 "/></g></g></g><g fill="#3b4658" fill-opacity="1"><g transform="translate(327.18283, 233.624985)"><g><path d="M 78.183594 -103.65625 C 72.304688 -103.65625 70.34375 -100.910156 69.167969 -96.601562 L 51.335938 -34.289062 L 33.507812 -96.601562 C 32.332031 -100.910156 30.371094 -103.65625 24.492188 -103.65625 L 13.324219 -103.65625 C 9.011719 -103.65625 5.878906 -99.734375 7.445312 -95.425781 L 38.796875 1.371094 L 37.425781 5.289062 C 34.683594 12.738281 30.371094 16.066406 22.140625 16.066406 L 18.027344 16.066406 C 13.910156 16.066406 10.777344 19.398438 10.777344 23.316406 L 10.777344 31.9375 C 10.777344 35.859375 13.910156 39.1875 18.027344 39.1875 L 29.585938 39.1875 C 51.925781 39.1875 57.804688 23.511719 63.289062 6.074219 L 95.425781 -95.425781 C 96.796875 -99.734375 93.660156 -103.65625 89.351562 -103.65625 Z M 78.183594 -103.65625 "/></g></g></g><g fill="#3b4658" fill-opacity="1"><g transform="translate(429.857853, 233.624985)"><g><path d="M 56.039062 1.960938 C 70.734375 1.960938 80.925781 -3.136719 87.785156 -11.363281 C 89.9375 -14.304688 89.15625 -19.007812 86.410156 -21.160156 L 80.335938 -25.667969 C 75.636719 -29 73.871094 -28.019531 68.386719 -25.082031 C 64.074219 -21.945312 59.960938 -21.160156 56.039062 -21.160156 C 46.636719 -21.160156 41.148438 -26.453125 41.148438 -38.796875 L 41.148438 -65.835938 C 41.148438 -78.183594 46.636719 -83.472656 56.039062 -83.472656 C 59.960938 -83.472656 64.074219 -82.6875 68.386719 -79.554688 C 73.871094 -76.613281 75.636719 -75.636719 80.335938 -78.964844 L 86.410156 -83.472656 C 89.15625 -85.628906 89.9375 -90.332031 87.785156 -93.269531 C 80.925781 -101.5 70.734375 -106.59375 56.039062 -106.59375 C 29.195312 -106.59375 15.675781 -90.527344 15.675781 -62.703125 L 15.675781 -41.933594 C 15.675781 -14.109375 29.195312 1.960938 56.039062 1.960938 Z M 56.039062 1.960938 "/></g></g></g><g fill="#3b4658" fill-opacity="1"><g transform="translate(532.532888, 233.624985)"><g><path d="M 92.09375 -21.160156 C 90.132812 -21.160156 88.960938 -22.335938 88.960938 -25.472656 L 88.960938 -96.601562 C 88.960938 -100.519531 85.628906 -103.65625 81.710938 -103.65625 L 69.167969 -103.65625 C 65.640625 -103.65625 63.289062 -101.890625 63.289062 -98.953125 C 58.195312 -104.046875 51.140625 -106.59375 42.324219 -106.59375 C 20.964844 -106.59375 9.40625 -91.703125 9.40625 -63.683594 L 9.40625 -41.148438 C 9.40625 -12.933594 20.964844 1.960938 42.324219 1.960938 C 52.90625 1.960938 61.136719 -1.761719 66.230469 -9.210938 C 68.972656 -2.15625 77.007812 0.980469 83.472656 0.980469 C 87.390625 0.980469 91.898438 0.390625 94.835938 -1.960938 C 96.210938 -3.136719 96.796875 -4.507812 96.796875 -6.464844 L 96.796875 -17.636719 C 96.796875 -19.789062 95.621094 -21.160156 93.859375 -21.160156 Z M 62.703125 -33.507812 C 62.703125 -27.433594 58.195312 -22.335938 48.984375 -22.335938 C 39.582031 -22.335938 35.074219 -27.433594 35.074219 -38.011719 L 35.074219 -66.621094 C 35.074219 -77.203125 39.582031 -82.296875 48.984375 -82.296875 C 58.195312 -82.296875 62.703125 -77.203125 62.703125 -71.128906 Z M 62.703125 -33.507812 "/></g></g></g><g fill="#3b4658" fill-opacity="1"><g transform="translate(635.207899, 233.624985)"><g><path d="M 88.761719 -25.667969 C 83.863281 -29.195312 82.101562 -28.019531 76.808594 -25.082031 C 72.5 -21.945312 68.1875 -21.160156 64.269531 -21.160156 C 54.863281 -21.160156 49.574219 -26.257812 49.574219 -38.601562 L 49.574219 -80.730469 L 74.65625 -80.730469 C 78.574219 -80.730469 81.90625 -83.863281 81.90625 -87.785156 L 81.90625 -96.601562 C 81.90625 -100.519531 78.574219 -103.65625 74.65625 -103.65625 L 49.574219 -103.65625 L 49.574219 -124.03125 C 49.574219 -127.953125 46.242188 -131.28125 42.324219 -131.28125 L 31.15625 -131.28125 C 27.238281 -131.28125 23.90625 -127.953125 23.90625 -124.03125 L 23.90625 -103.65625 L 14.695312 -103.65625 C 10.777344 -103.65625 7.640625 -100.519531 7.640625 -96.601562 L 7.640625 -87.785156 C 7.640625 -83.863281 10.777344 -80.730469 14.695312 -80.730469 L 23.90625 -80.730469 L 23.90625 -40.757812 C 23.90625 -13.128906 36.640625 1.960938 64.269531 1.960938 C 78.964844 1.960938 89.15625 -3.136719 96.011719 -11.363281 C 98.363281 -14.304688 97.382812 -19.203125 94.640625 -21.160156 Z M 88.761719 -25.667969 "/></g></g></g><g clip-path="url(#00046096fc)"><path fill="#3b4658" d="M 212.757812 217.253906 C 219.40625 208.28125 223.335938 197.195312 223.335938 185.195312 C 223.335938 155.332031 198.996094 131.121094 168.976562 131.121094 C 138.953125 131.121094 114.617188 155.332031 114.617188 185.195312 C 114.617188 209.507812 130.746094 230.074219 152.941406 236.882812 C 151.585938 233.652344 150.484375 230.816406 149.847656 228.871094 C 147.648438 222.15625 149.074219 213.6875 149.761719 209.621094 C 149.792969 209.441406 149.820312 209.269531 149.847656 209.105469 C 150.488281 205.28125 149.375 200.488281 148.316406 197.121094 C 146.199219 190.382812 145.949219 184.5 147.863281 181.183594 C 144.902344 178.835938 144.953125 165.882812 145.121094 159.890625 C 148.316406 159.890625 154.191406 164.605469 157.640625 168.433594 C 157.640625 168.433594 167.105469 163.03125 176.542969 168.433594 C 182.648438 160.65625 188.550781 160.65625 188.550781 160.65625 C 188.550781 160.65625 190.601562 168.433594 187.144531 181.183594 C 189.773438 187.445312 188.71875 193.183594 188.207031 195.957031 C 188.117188 196.4375 188.046875 196.832031 188.011719 197.121094 C 187.757812 199.320312 189.574219 201.054688 191.449219 202.847656 C 192.414062 203.765625 193.390625 204.703125 194.117188 205.722656 C 194.777344 206.652344 195.273438 207.496094 195.726562 208.257812 C 196.882812 210.210938 197.738281 211.660156 200.222656 212.746094 C 203.65625 214.25 206.554688 215.195312 209.242188 216.070312 C 210.445312 216.464844 211.609375 216.84375 212.757812 217.253906 Z M 212.757812 217.253906 " fill-opacity="1" fill-rule="nonzero"/></g></svg>