<svg xmlns="http://www.w3.org/2000/svg" xmlns:xlink="http://www.w3.org/1999/xlink" width="500" zoomAndPan="magnify" viewBox="0 0 375 374.999991" height="500" preserveAspectRatio="xMidYMid meet" version="1.0"><defs><clipPath id="7a933feebf"><path d="M 187.5 0 C 83.945312 0 0 83.945312 0 187.5 C 0 291.054688 83.945312 375 187.5 375 C 291.054688 375 375 291.054688 375 187.5 C 375 83.945312 291.054688 0 187.5 0 " clip-rule="nonzero"/></clipPath><clipPath id="3965284a3d"><path d="M 64.269531 113 L 262 113 L 262 310.730469 L 64.269531 310.730469 Z M 64.269531 113 " clip-rule="nonzero"/></clipPath><clipPath id="51a0cc5970"><path d="M 113 64.269531 L 310.730469 64.269531 L 310.730469 262 L 113 262 Z M 113 64.269531 " clip-rule="nonzero"/></clipPath><clipPath id="ab602ac639"><path d="M 198.109375 192.554688 L 240.230469 192.554688 L 240.230469 235.476562 L 198.109375 235.476562 Z M 198.109375 192.554688 " clip-rule="nonzero"/></clipPath><clipPath id="23ae666edc"><path d="M 127.699219 214.558594 L 200.433594 214.558594 L 200.433594 275.601562 L 127.699219 275.601562 Z M 127.699219 214.558594 " clip-rule="nonzero"/></clipPath></defs><path fill="#f3f3f3" d="M 187.5 0 C 83.945312 0 0 83.945312 0 187.5 C 0 291.054688 83.945312 375 187.5 375 C 291.054688 375 375 291.054688 375 187.5 C 375 83.945312 291.054688 0 187.5 0 " fill-opacity="1" fill-rule="nonzero"/><g clip-path="url(#7a933feebf)"><path stroke-linecap="butt" transform="matrix(0.75, 0, 0, 0.75, 0.0000045, -0.000000000000042633)" fill="none" stroke-linejoin="miter" d="M 250.00001 0.000000000000056843 C 111.927085 0.000000000000056843 -0.000006 111.927091 -0.000006 250.000016 C -0.000006 388.072942 111.927085 500.000033 250.00001 500.000033 C 388.072936 500.000033 500.000027 388.072942 500.000027 250.000016 C 500.000027 111.927091 388.072936 0.000000000000056843 250.00001 0.000000000000056843 " stroke="#f3f3f3" stroke-width="30" stroke-opacity="1" stroke-miterlimit="4"/></g><g clip-path="url(#3965284a3d)"><path fill="#3b4658" d="M 88.917969 113.5625 L 236.792969 113.5625 C 237.597656 113.5625 238.40625 113.601562 239.207031 113.679688 C 240.011719 113.761719 240.808594 113.878906 241.601562 114.035156 C 242.390625 114.191406 243.171875 114.390625 243.945312 114.625 C 244.71875 114.859375 245.476562 115.128906 246.222656 115.4375 C 246.96875 115.746094 247.699219 116.089844 248.410156 116.472656 C 249.121094 116.851562 249.8125 117.265625 250.484375 117.714844 C 251.15625 118.164062 251.804688 118.644531 252.425781 119.15625 C 253.050781 119.667969 253.648438 120.210938 254.21875 120.78125 C 254.789062 121.351562 255.332031 121.949219 255.84375 122.574219 C 256.355469 123.195312 256.835938 123.84375 257.285156 124.515625 C 257.734375 125.1875 258.148438 125.878906 258.527344 126.589844 C 258.90625 127.300781 259.253906 128.03125 259.5625 128.777344 C 259.871094 129.523438 260.140625 130.28125 260.375 131.054688 C 260.609375 131.824219 260.808594 132.609375 260.964844 133.398438 C 261.121094 134.191406 261.238281 134.988281 261.320312 135.792969 C 261.398438 136.59375 261.4375 137.402344 261.4375 138.207031 L 261.4375 286.082031 C 261.4375 286.890625 261.398438 287.695312 261.320312 288.5 C 261.238281 289.304688 261.121094 290.101562 260.964844 290.890625 C 260.808594 291.683594 260.609375 292.464844 260.375 293.238281 C 260.140625 294.011719 259.871094 294.769531 259.5625 295.515625 C 259.253906 296.261719 258.90625 296.988281 258.527344 297.703125 C 258.148438 298.414062 257.734375 299.105469 257.285156 299.777344 C 256.835938 300.449219 256.355469 301.09375 255.84375 301.71875 C 255.332031 302.34375 254.789062 302.941406 254.21875 303.511719 C 253.648438 304.082031 253.050781 304.625 252.425781 305.136719 C 251.804688 305.648438 251.15625 306.128906 250.484375 306.574219 C 249.8125 307.023438 249.121094 307.4375 248.410156 307.820312 C 247.699219 308.199219 246.96875 308.542969 246.222656 308.855469 C 245.476562 309.164062 244.71875 309.433594 243.945312 309.667969 C 243.171875 309.902344 242.390625 310.097656 241.601562 310.257812 C 240.808594 310.414062 240.011719 310.53125 239.207031 310.609375 C 238.40625 310.691406 237.597656 310.730469 236.792969 310.730469 L 88.917969 310.730469 C 88.109375 310.730469 87.304688 310.691406 86.5 310.609375 C 85.695312 310.53125 84.898438 310.414062 84.109375 310.257812 C 83.316406 310.097656 82.535156 309.902344 81.761719 309.667969 C 80.988281 309.433594 80.230469 309.164062 79.484375 308.855469 C 78.738281 308.542969 78.011719 308.199219 77.296875 307.820312 C 76.585938 307.4375 75.894531 307.023438 75.222656 306.574219 C 74.550781 306.128906 73.90625 305.648438 73.28125 305.136719 C 72.65625 304.625 72.058594 304.082031 71.488281 303.511719 C 70.917969 302.941406 70.375 302.34375 69.863281 301.71875 C 69.351562 301.09375 68.871094 300.449219 68.421875 299.777344 C 67.976562 299.105469 67.5625 298.414062 67.179688 297.703125 C 66.800781 296.988281 66.457031 296.261719 66.144531 295.515625 C 65.835938 294.769531 65.566406 294.011719 65.332031 293.238281 C 65.097656 292.464844 64.902344 291.683594 64.742188 290.890625 C 64.585938 290.101562 64.46875 289.304688 64.390625 288.5 C 64.308594 287.695312 64.269531 286.890625 64.269531 286.082031 L 64.269531 138.207031 C 64.269531 137.402344 64.308594 136.59375 64.390625 135.792969 C 64.46875 134.988281 64.585938 134.191406 64.742188 133.398438 C 64.902344 132.609375 65.097656 131.824219 65.332031 131.054688 C 65.566406 130.28125 65.835938 129.523438 66.144531 128.777344 C 66.457031 128.03125 66.800781 127.300781 67.179688 126.589844 C 67.5625 125.878906 67.976562 125.1875 68.421875 124.515625 C 68.871094 123.84375 69.351562 123.195312 69.863281 122.574219 C 70.375 121.949219 70.917969 121.351562 71.488281 120.78125 C 72.058594 120.210938 72.65625 119.667969 73.28125 119.15625 C 73.90625 118.644531 74.550781 118.164062 75.222656 117.714844 C 75.894531 117.265625 76.585938 116.851562 77.296875 116.472656 C 78.011719 116.089844 78.738281 115.746094 79.484375 115.4375 C 80.230469 115.128906 80.988281 114.859375 81.761719 114.625 C 82.535156 114.390625 83.316406 114.191406 84.109375 114.035156 C 84.898438 113.878906 85.695312 113.761719 86.5 113.679688 C 87.304688 113.601562 88.109375 113.5625 88.917969 113.5625 Z M 88.917969 113.5625 " fill-opacity="1" fill-rule="nonzero"/></g><g clip-path="url(#51a0cc5970)"><path fill="#3b4658" d="M 310.730469 88.917969 L 310.730469 236.792969 C 310.726562 237.597656 310.6875 238.402344 310.605469 239.207031 C 310.523438 240.007812 310.402344 240.804688 310.242188 241.59375 C 310.085938 242.386719 309.886719 243.167969 309.652344 243.9375 C 309.417969 244.710938 309.144531 245.46875 308.835938 246.210938 C 308.523438 246.957031 308.179688 247.683594 307.796875 248.394531 C 307.417969 249.105469 307.003906 249.796875 306.554688 250.46875 C 306.105469 251.136719 305.625 251.785156 305.113281 252.40625 C 304.601562 253.03125 304.058594 253.628906 303.488281 254.199219 C 302.917969 254.769531 302.324219 255.308594 301.699219 255.820312 C 301.074219 256.332031 300.429688 256.8125 299.757812 257.261719 C 299.089844 257.710938 298.398438 258.125 297.6875 258.507812 C 296.976562 258.886719 296.25 259.230469 295.503906 259.542969 C 294.757812 259.851562 294 260.125 293.230469 260.359375 C 292.457031 260.59375 291.675781 260.792969 290.886719 260.953125 C 290.097656 261.109375 289.300781 261.230469 288.496094 261.3125 C 287.695312 261.394531 286.890625 261.433594 286.082031 261.4375 L 277.867188 261.4375 L 277.867188 138.207031 C 277.867188 136.863281 277.800781 135.519531 277.671875 134.183594 C 277.539062 132.84375 277.339844 131.515625 277.078125 130.195312 C 276.816406 128.875 276.488281 127.570312 276.101562 126.285156 C 275.710938 124.996094 275.257812 123.730469 274.742188 122.488281 C 274.226562 121.246094 273.652344 120.03125 273.019531 118.84375 C 272.382812 117.660156 271.691406 116.503906 270.945312 115.386719 C 270.199219 114.269531 269.398438 113.1875 268.542969 112.148438 C 267.691406 111.109375 266.789062 110.113281 265.835938 109.164062 C 264.886719 108.210938 263.890625 107.308594 262.851562 106.457031 C 261.8125 105.601562 260.730469 104.800781 259.613281 104.054688 C 258.496094 103.308594 257.339844 102.617188 256.15625 101.980469 C 254.96875 101.347656 253.753906 100.773438 252.511719 100.257812 C 251.269531 99.742188 250.003906 99.289062 248.714844 98.898438 C 247.429688 98.507812 246.125 98.183594 244.804688 97.921875 C 243.484375 97.660156 242.15625 97.460938 240.816406 97.328125 C 239.480469 97.199219 238.136719 97.132812 236.792969 97.132812 L 113.5625 97.132812 L 113.5625 88.917969 C 113.566406 88.109375 113.605469 87.304688 113.6875 86.503906 C 113.769531 85.699219 113.890625 84.902344 114.046875 84.113281 C 114.207031 83.324219 114.40625 82.542969 114.640625 81.769531 C 114.875 81 115.148438 80.242188 115.457031 79.496094 C 115.769531 78.75 116.113281 78.023438 116.492188 77.3125 C 116.875 76.601562 117.289062 75.910156 117.738281 75.242188 C 118.1875 74.570312 118.667969 73.925781 119.179688 73.300781 C 119.691406 72.675781 120.230469 72.082031 120.800781 71.511719 C 121.371094 70.941406 121.96875 70.398438 122.59375 69.886719 C 123.214844 69.375 123.863281 68.894531 124.53125 68.445312 C 125.203125 67.996094 125.894531 67.582031 126.605469 67.203125 C 127.316406 66.820312 128.042969 66.476562 128.789062 66.164062 C 129.53125 65.855469 130.289062 65.582031 131.0625 65.347656 C 131.832031 65.113281 132.613281 64.914062 133.40625 64.757812 C 134.195312 64.597656 134.992188 64.476562 135.792969 64.394531 C 136.597656 64.3125 137.402344 64.273438 138.207031 64.269531 L 286.082031 64.269531 C 286.890625 64.273438 287.695312 64.3125 288.496094 64.394531 C 289.300781 64.476562 290.097656 64.597656 290.886719 64.757812 C 291.675781 64.914062 292.457031 65.113281 293.230469 65.347656 C 294 65.582031 294.757812 65.855469 295.503906 66.164062 C 296.25 66.476562 296.976562 66.820312 297.6875 67.203125 C 298.398438 67.582031 299.089844 67.996094 299.757812 68.445312 C 300.429688 68.894531 301.074219 69.375 301.699219 69.886719 C 302.324219 70.398438 302.917969 70.941406 303.488281 71.511719 C 304.058594 72.082031 304.601562 72.675781 305.113281 73.300781 C 305.625 73.925781 306.105469 74.570312 306.554688 75.242188 C 307.003906 75.910156 307.417969 76.601562 307.796875 77.3125 C 308.179688 78.023438 308.523438 78.75 308.835938 79.496094 C 309.144531 80.242188 309.417969 81 309.652344 81.769531 C 309.886719 82.542969 310.085938 83.324219 310.242188 84.113281 C 310.402344 84.902344 310.523438 85.699219 310.605469 86.503906 C 310.6875 87.304688 310.726562 88.109375 310.730469 88.917969 Z M 310.730469 88.917969 " fill-opacity="1" fill-rule="nonzero"/></g><path fill="#ffffff" d="M 138.792969 162.777344 C 166.425781 158.890625 168.660156 208.527344 143.089844 207.328125 C 122.535156 206.363281 114.777344 166.15625 138.792969 162.777344 " fill-opacity="1" fill-rule="evenodd"/><path fill="#ffffff" d="M 183.207031 162.777344 C 213.640625 156.113281 210.085938 210.34375 181.777344 207.328125 C 159.367188 204.9375 163.734375 167.042969 183.207031 162.777344 " fill-opacity="1" fill-rule="evenodd"/><path fill="#ffffff" d="M 128.765625 222.417969 C 117.945312 246.113281 84.964844 229.371094 88.652344 205.890625 C 92.535156 181.15625 136.636719 193.765625 128.765625 222.417969 " fill-opacity="1" fill-rule="evenodd"/><g clip-path="url(#ab602ac639)"><path fill="#ffffff" d="M 218.308594 192.957031 C 225.429688 191.574219 234.328125 194.113281 237.648438 200.140625 C 246.8125 216.777344 229.921875 237.109375 213.292969 235.347656 C 204.160156 234.386719 198.886719 226.589844 198.25 219.542969 C 196.890625 204.449219 207.628906 195.03125 218.308594 192.957031 " fill-opacity="1" fill-rule="evenodd"/></g><g clip-path="url(#23ae666edc)"><path fill="#ffffff" d="M 156.703125 215.230469 C 181.800781 210.886719 204.84375 229.03125 199.683594 259.777344 C 198.613281 266.144531 193.152344 275.144531 185.355469 275.585938 C 179.0625 275.949219 171.703125 269.800781 163.867188 269.839844 C 154.136719 269.886719 146.46875 278.539062 137.359375 274.152344 C 129.710938 270.460938 126.621094 255.546875 128.050781 244.691406 C 130.109375 229.042969 141.578125 217.847656 156.703125 215.230469 " fill-opacity="1" fill-rule="evenodd"/></g></svg>